<mxfile host="app.diagrams.net" agent="Mozilla/5.0 (Windows NT 10.0; Win64; x64) AppleWebKit/537.36 (KHTML, like Gecko) Chrome/133.0.0.0 Safari/537.36" version="26.0.16">
  <diagram name="Page-1" id="c7488fd3-1785-93aa-aadb-54a6760d102a">
    <mxGraphModel dx="1313" dy="696" grid="1" gridSize="10" guides="1" tooltips="1" connect="1" arrows="1" fold="1" page="1" pageScale="1" pageWidth="1100" pageHeight="850" background="none" math="0" shadow="0">
      <root>
        <mxCell id="0" />
        <mxCell id="1" parent="0" />
        <mxCell id="2b4e8129b02d487f-1" value="Fluograma das etapas de desenvolvimento de um jogo digital usando a ferramenta ChatGPT4-4" style="swimlane;html=1;childLayout=stackLayout;horizontal=1;startSize=20;horizontalStack=0;rounded=0;shadow=0;labelBackgroundColor=none;strokeWidth=1;fontFamily=Verdana;fontSize=8;align=center;" parent="1" vertex="1">
          <mxGeometry x="180" y="70" width="895" height="756" as="geometry" />
        </mxCell>
        <mxCell id="2b4e8129b02d487f-2" value="Idealização" style="swimlane;html=1;startSize=20;horizontal=0;" parent="2b4e8129b02d487f-1" vertex="1">
          <mxGeometry y="20" width="895" height="150" as="geometry" />
        </mxCell>
        <mxCell id="2b4e8129b02d487f-18" style="edgeStyle=orthogonalEdgeStyle;rounded=0;html=1;labelBackgroundColor=none;startArrow=none;startFill=0;startSize=5;endArrow=classicThin;endFill=1;endSize=5;jettySize=auto;orthogonalLoop=1;strokeWidth=1;fontFamily=Verdana;fontSize=8" parent="2b4e8129b02d487f-2" source="2b4e8129b02d487f-5" target="2b4e8129b02d487f-6" edge="1">
          <mxGeometry relative="1" as="geometry" />
        </mxCell>
        <mxCell id="2b4e8129b02d487f-5" value="" style="ellipse;whiteSpace=wrap;html=1;rounded=0;shadow=0;labelBackgroundColor=none;strokeWidth=1;fontFamily=Verdana;fontSize=8;align=center;" parent="2b4e8129b02d487f-2" vertex="1">
          <mxGeometry x="60" y="60" width="30" height="30" as="geometry" />
        </mxCell>
        <mxCell id="2b4e8129b02d487f-6" value="Definir ideia principal do jogo" style="rounded=1;whiteSpace=wrap;html=1;shadow=0;labelBackgroundColor=none;strokeWidth=1;fontFamily=Verdana;fontSize=8;align=center;" parent="2b4e8129b02d487f-2" vertex="1">
          <mxGeometry x="120" y="56.49999999999997" width="70" height="37" as="geometry" />
        </mxCell>
        <mxCell id="2b4e8129b02d487f-3" value="Game Design Document" style="swimlane;html=1;startSize=20;horizontal=0;" parent="2b4e8129b02d487f-1" vertex="1">
          <mxGeometry y="170" width="895" height="203.99999999999994" as="geometry" />
        </mxCell>
        <mxCell id="yVmnszPTZZxLj4L8UxqV-28" value="" style="edgeStyle=orthogonalEdgeStyle;rounded=0;orthogonalLoop=1;jettySize=auto;html=1;" edge="1" parent="2b4e8129b02d487f-3" source="2b4e8129b02d487f-12" target="yVmnszPTZZxLj4L8UxqV-27">
          <mxGeometry relative="1" as="geometry" />
        </mxCell>
        <mxCell id="2b4e8129b02d487f-12" value="Criar o Game Design Document" style="rounded=1;whiteSpace=wrap;html=1;shadow=0;labelBackgroundColor=none;strokeWidth=1;fontFamily=Verdana;fontSize=8;align=center;" parent="2b4e8129b02d487f-3" vertex="1">
          <mxGeometry x="120" y="83.49999999999996" width="70" height="37" as="geometry" />
        </mxCell>
        <mxCell id="yVmnszPTZZxLj4L8UxqV-30" value="" style="edgeStyle=orthogonalEdgeStyle;rounded=0;orthogonalLoop=1;jettySize=auto;html=1;" edge="1" parent="2b4e8129b02d487f-3" source="yVmnszPTZZxLj4L8UxqV-27" target="yVmnszPTZZxLj4L8UxqV-29">
          <mxGeometry relative="1" as="geometry" />
        </mxCell>
        <mxCell id="yVmnszPTZZxLj4L8UxqV-27" value="Visão geral" style="rounded=1;whiteSpace=wrap;html=1;shadow=0;labelBackgroundColor=none;strokeWidth=1;fontFamily=Verdana;fontSize=8;align=center;" vertex="1" parent="2b4e8129b02d487f-3">
          <mxGeometry x="230" y="83.49999999999996" width="70" height="37" as="geometry" />
        </mxCell>
        <mxCell id="yVmnszPTZZxLj4L8UxqV-32" value="" style="edgeStyle=orthogonalEdgeStyle;rounded=0;orthogonalLoop=1;jettySize=auto;html=1;" edge="1" parent="2b4e8129b02d487f-3" source="yVmnszPTZZxLj4L8UxqV-29" target="yVmnszPTZZxLj4L8UxqV-31">
          <mxGeometry relative="1" as="geometry" />
        </mxCell>
        <mxCell id="yVmnszPTZZxLj4L8UxqV-29" value="Gameplay" style="rounded=1;whiteSpace=wrap;html=1;shadow=0;labelBackgroundColor=none;strokeWidth=1;fontFamily=Verdana;fontSize=8;align=center;" vertex="1" parent="2b4e8129b02d487f-3">
          <mxGeometry x="340" y="83.49999999999996" width="70" height="37" as="geometry" />
        </mxCell>
        <mxCell id="yVmnszPTZZxLj4L8UxqV-34" value="" style="edgeStyle=orthogonalEdgeStyle;rounded=0;orthogonalLoop=1;jettySize=auto;html=1;" edge="1" parent="2b4e8129b02d487f-3" source="yVmnszPTZZxLj4L8UxqV-31" target="yVmnszPTZZxLj4L8UxqV-33">
          <mxGeometry relative="1" as="geometry" />
        </mxCell>
        <mxCell id="yVmnszPTZZxLj4L8UxqV-31" value="Elementos visuais" style="rounded=1;whiteSpace=wrap;html=1;shadow=0;labelBackgroundColor=none;strokeWidth=1;fontFamily=Verdana;fontSize=8;align=center;" vertex="1" parent="2b4e8129b02d487f-3">
          <mxGeometry x="450" y="83.49999999999996" width="70" height="37" as="geometry" />
        </mxCell>
        <mxCell id="yVmnszPTZZxLj4L8UxqV-36" value="" style="edgeStyle=orthogonalEdgeStyle;rounded=0;orthogonalLoop=1;jettySize=auto;html=1;" edge="1" parent="2b4e8129b02d487f-3" source="yVmnszPTZZxLj4L8UxqV-33" target="yVmnszPTZZxLj4L8UxqV-35">
          <mxGeometry relative="1" as="geometry" />
        </mxCell>
        <mxCell id="yVmnszPTZZxLj4L8UxqV-33" value="Efeitos sonoros" style="rounded=1;whiteSpace=wrap;html=1;shadow=0;labelBackgroundColor=none;strokeWidth=1;fontFamily=Verdana;fontSize=8;align=center;" vertex="1" parent="2b4e8129b02d487f-3">
          <mxGeometry x="560" y="83.49999999999996" width="70" height="37" as="geometry" />
        </mxCell>
        <mxCell id="yVmnszPTZZxLj4L8UxqV-35" value="Recompensas" style="rounded=1;whiteSpace=wrap;html=1;shadow=0;labelBackgroundColor=none;strokeWidth=1;fontFamily=Verdana;fontSize=8;align=center;" vertex="1" parent="2b4e8129b02d487f-3">
          <mxGeometry x="670" y="83.49999999999996" width="70" height="37" as="geometry" />
        </mxCell>
        <mxCell id="2b4e8129b02d487f-4" value="Desenvolvimento" style="swimlane;html=1;startSize=20;horizontal=0;" parent="2b4e8129b02d487f-1" vertex="1">
          <mxGeometry y="373.99999999999994" width="895" height="220.25" as="geometry" />
        </mxCell>
        <mxCell id="yVmnszPTZZxLj4L8UxqV-43" value="" style="edgeStyle=orthogonalEdgeStyle;rounded=0;orthogonalLoop=1;jettySize=auto;html=1;" edge="1" parent="2b4e8129b02d487f-4" source="yVmnszPTZZxLj4L8UxqV-40" target="yVmnszPTZZxLj4L8UxqV-42">
          <mxGeometry relative="1" as="geometry" />
        </mxCell>
        <mxCell id="yVmnszPTZZxLj4L8UxqV-40" value="Rolagem do cenário de fundo" style="rounded=1;whiteSpace=wrap;html=1;shadow=0;labelBackgroundColor=none;strokeWidth=1;fontFamily=Verdana;fontSize=8;align=center;" vertex="1" parent="2b4e8129b02d487f-4">
          <mxGeometry x="110" y="56.5" width="70" height="37" as="geometry" />
        </mxCell>
        <mxCell id="yVmnszPTZZxLj4L8UxqV-45" value="" style="edgeStyle=orthogonalEdgeStyle;rounded=0;orthogonalLoop=1;jettySize=auto;html=1;" edge="1" parent="2b4e8129b02d487f-4" source="yVmnszPTZZxLj4L8UxqV-42" target="yVmnszPTZZxLj4L8UxqV-44">
          <mxGeometry relative="1" as="geometry" />
        </mxCell>
        <mxCell id="yVmnszPTZZxLj4L8UxqV-42" value="Jogador e Movimentação" style="rounded=1;whiteSpace=wrap;html=1;shadow=0;labelBackgroundColor=none;strokeWidth=1;fontFamily=Verdana;fontSize=8;align=center;" vertex="1" parent="2b4e8129b02d487f-4">
          <mxGeometry x="220" y="56.5" width="70" height="37" as="geometry" />
        </mxCell>
        <mxCell id="yVmnszPTZZxLj4L8UxqV-47" value="" style="edgeStyle=orthogonalEdgeStyle;rounded=0;orthogonalLoop=1;jettySize=auto;html=1;" edge="1" parent="2b4e8129b02d487f-4" source="yVmnszPTZZxLj4L8UxqV-44" target="yVmnszPTZZxLj4L8UxqV-46">
          <mxGeometry relative="1" as="geometry" />
        </mxCell>
        <mxCell id="yVmnszPTZZxLj4L8UxqV-44" value="Asteroides e mecânicas de colisão" style="rounded=1;whiteSpace=wrap;html=1;shadow=0;labelBackgroundColor=none;strokeWidth=1;fontFamily=Verdana;fontSize=8;align=center;" vertex="1" parent="2b4e8129b02d487f-4">
          <mxGeometry x="330" y="56.5" width="70" height="37" as="geometry" />
        </mxCell>
        <mxCell id="yVmnszPTZZxLj4L8UxqV-49" value="" style="edgeStyle=orthogonalEdgeStyle;rounded=0;orthogonalLoop=1;jettySize=auto;html=1;" edge="1" parent="2b4e8129b02d487f-4" source="yVmnszPTZZxLj4L8UxqV-46" target="yVmnszPTZZxLj4L8UxqV-48">
          <mxGeometry relative="1" as="geometry" />
        </mxCell>
        <mxCell id="yVmnszPTZZxLj4L8UxqV-46" value="Mecânicas dos lasers para o jogador e contador de munição" style="rounded=1;whiteSpace=wrap;html=1;shadow=0;labelBackgroundColor=none;strokeWidth=1;fontFamily=Verdana;fontSize=8;align=center;" vertex="1" parent="2b4e8129b02d487f-4">
          <mxGeometry x="430" y="53.25" width="80" height="43.5" as="geometry" />
        </mxCell>
        <mxCell id="yVmnszPTZZxLj4L8UxqV-51" value="" style="edgeStyle=orthogonalEdgeStyle;rounded=0;orthogonalLoop=1;jettySize=auto;html=1;" edge="1" parent="2b4e8129b02d487f-4" source="yVmnszPTZZxLj4L8UxqV-48" target="yVmnszPTZZxLj4L8UxqV-50">
          <mxGeometry relative="1" as="geometry" />
        </mxCell>
        <mxCell id="yVmnszPTZZxLj4L8UxqV-48" value="Controle para determinar o fim de jogo" style="rounded=1;whiteSpace=wrap;html=1;shadow=0;labelBackgroundColor=none;strokeWidth=1;fontFamily=Verdana;fontSize=8;align=center;" vertex="1" parent="2b4e8129b02d487f-4">
          <mxGeometry x="550" y="53.25" width="80" height="43.5" as="geometry" />
        </mxCell>
        <mxCell id="yVmnszPTZZxLj4L8UxqV-50" value="Interface de fim de jogo" style="rounded=1;whiteSpace=wrap;html=1;shadow=0;labelBackgroundColor=none;strokeWidth=1;fontFamily=Verdana;fontSize=8;align=center;" vertex="1" parent="2b4e8129b02d487f-4">
          <mxGeometry x="680" y="53.25" width="80" height="43.5" as="geometry" />
        </mxCell>
        <mxCell id="yVmnszPTZZxLj4L8UxqV-57" value="" style="edgeStyle=orthogonalEdgeStyle;rounded=0;orthogonalLoop=1;jettySize=auto;html=1;" edge="1" parent="2b4e8129b02d487f-4" source="yVmnszPTZZxLj4L8UxqV-54" target="yVmnszPTZZxLj4L8UxqV-56">
          <mxGeometry relative="1" as="geometry" />
        </mxCell>
        <mxCell id="yVmnszPTZZxLj4L8UxqV-54" value="Marcador de pontuação e maior pontuação" style="rounded=1;whiteSpace=wrap;html=1;shadow=0;labelBackgroundColor=none;strokeWidth=1;fontFamily=Verdana;fontSize=8;align=center;" vertex="1" parent="2b4e8129b02d487f-4">
          <mxGeometry x="110" y="146.00000000000006" width="80" height="43.5" as="geometry" />
        </mxCell>
        <mxCell id="yVmnszPTZZxLj4L8UxqV-55" value="" style="edgeStyle=orthogonalEdgeStyle;rounded=0;orthogonalLoop=1;jettySize=auto;html=1;" edge="1" parent="2b4e8129b02d487f-4" source="yVmnszPTZZxLj4L8UxqV-50" target="yVmnszPTZZxLj4L8UxqV-54">
          <mxGeometry relative="1" as="geometry">
            <Array as="points">
              <mxPoint x="720" y="116" />
              <mxPoint x="150" y="116" />
            </Array>
          </mxGeometry>
        </mxCell>
        <mxCell id="yVmnszPTZZxLj4L8UxqV-56" value="Efeitos sonoros" style="rounded=1;whiteSpace=wrap;html=1;shadow=0;labelBackgroundColor=none;strokeWidth=1;fontFamily=Verdana;fontSize=8;align=center;" vertex="1" parent="2b4e8129b02d487f-4">
          <mxGeometry x="270" y="146.00000000000006" width="80" height="43.5" as="geometry" />
        </mxCell>
        <mxCell id="yVmnszPTZZxLj4L8UxqV-65" style="edgeStyle=orthogonalEdgeStyle;rounded=0;orthogonalLoop=1;jettySize=auto;html=1;" edge="1" parent="2b4e8129b02d487f-4" source="yVmnszPTZZxLj4L8UxqV-63" target="yVmnszPTZZxLj4L8UxqV-40">
          <mxGeometry relative="1" as="geometry">
            <Array as="points">
              <mxPoint x="100" y="101" />
              <mxPoint x="100" y="75" />
            </Array>
          </mxGeometry>
        </mxCell>
        <mxCell id="yVmnszPTZZxLj4L8UxqV-63" value="" style="ellipse;whiteSpace=wrap;html=1;rounded=0;shadow=0;labelBackgroundColor=none;strokeWidth=1;fontFamily=Verdana;fontSize=8;align=center;" vertex="1" parent="2b4e8129b02d487f-4">
          <mxGeometry x="60" y="86.00000000000006" width="30" height="30" as="geometry" />
        </mxCell>
        <mxCell id="2b4e8129b02d487f-24" style="edgeStyle=orthogonalEdgeStyle;rounded=0;html=1;labelBackgroundColor=none;startArrow=none;startFill=0;startSize=5;endArrow=classicThin;endFill=1;endSize=5;jettySize=auto;orthogonalLoop=1;strokeWidth=1;fontFamily=Verdana;fontSize=8" parent="2b4e8129b02d487f-1" source="2b4e8129b02d487f-6" target="2b4e8129b02d487f-12" edge="1">
          <mxGeometry relative="1" as="geometry" />
        </mxCell>
        <mxCell id="yVmnszPTZZxLj4L8UxqV-64" style="edgeStyle=orthogonalEdgeStyle;rounded=0;orthogonalLoop=1;jettySize=auto;html=1;entryX=0.5;entryY=0;entryDx=0;entryDy=0;" edge="1" parent="2b4e8129b02d487f-1" source="yVmnszPTZZxLj4L8UxqV-35" target="yVmnszPTZZxLj4L8UxqV-63">
          <mxGeometry relative="1" as="geometry">
            <Array as="points">
              <mxPoint x="705" y="330" />
              <mxPoint x="75" y="330" />
            </Array>
          </mxGeometry>
        </mxCell>
        <mxCell id="yVmnszPTZZxLj4L8UxqV-70" style="edgeStyle=orthogonalEdgeStyle;rounded=0;orthogonalLoop=1;jettySize=auto;html=1;entryX=0.5;entryY=1;entryDx=0;entryDy=0;" edge="1" parent="2b4e8129b02d487f-1" source="yVmnszPTZZxLj4L8UxqV-66" target="yVmnszPTZZxLj4L8UxqV-63">
          <mxGeometry relative="1" as="geometry">
            <Array as="points">
              <mxPoint x="213" y="620" />
              <mxPoint x="75" y="620" />
            </Array>
          </mxGeometry>
        </mxCell>
        <mxCell id="yVmnszPTZZxLj4L8UxqV-71" value="Não passou no teste" style="edgeLabel;html=1;align=center;verticalAlign=middle;resizable=0;points=[];" vertex="1" connectable="0" parent="yVmnszPTZZxLj4L8UxqV-70">
          <mxGeometry x="-0.5458" y="2" relative="1" as="geometry">
            <mxPoint x="-61" y="-25" as="offset" />
          </mxGeometry>
        </mxCell>
        <mxCell id="yVmnszPTZZxLj4L8UxqV-1" value="Testes" style="swimlane;html=1;startSize=20;horizontal=0;" vertex="1" parent="2b4e8129b02d487f-1">
          <mxGeometry y="594.25" width="895" height="161.75" as="geometry" />
        </mxCell>
        <mxCell id="yVmnszPTZZxLj4L8UxqV-67" value="" style="edgeStyle=orthogonalEdgeStyle;rounded=0;orthogonalLoop=1;jettySize=auto;html=1;" edge="1" parent="yVmnszPTZZxLj4L8UxqV-1" source="yVmnszPTZZxLj4L8UxqV-58" target="yVmnszPTZZxLj4L8UxqV-66">
          <mxGeometry relative="1" as="geometry" />
        </mxCell>
        <mxCell id="yVmnszPTZZxLj4L8UxqV-58" value="Testar funcionalidade" style="rounded=1;whiteSpace=wrap;html=1;shadow=0;labelBackgroundColor=none;strokeWidth=1;fontFamily=Verdana;fontSize=8;align=center;" vertex="1" parent="yVmnszPTZZxLj4L8UxqV-1">
          <mxGeometry x="35" y="45.75" width="80" height="43.5" as="geometry" />
        </mxCell>
        <mxCell id="yVmnszPTZZxLj4L8UxqV-69" value="" style="edgeStyle=orthogonalEdgeStyle;rounded=0;orthogonalLoop=1;jettySize=auto;html=1;" edge="1" parent="yVmnszPTZZxLj4L8UxqV-1" source="yVmnszPTZZxLj4L8UxqV-66" target="yVmnszPTZZxLj4L8UxqV-68">
          <mxGeometry relative="1" as="geometry" />
        </mxCell>
        <mxCell id="yVmnszPTZZxLj4L8UxqV-75" value="&lt;span style=&quot;color: rgba(0, 0, 0, 0); font-family: monospace; font-size: 0px; text-align: start; background-color: rgb(251, 251, 251);&quot;&gt;P%3CmxGraphModel%3E%3Croot%3E%3CmxCell%20id%3D%220%22%2F%3E%3CmxCell%20id%3D%221%22%20parent%3D%220%22%2F%3E%3CmxCell%20id%3D%222%22%20value%3D%22Passou%20no%20teste%22%20style%3D%22edgeLabel%3Bhtml%3D1%3Balign%3Dcenter%3BverticalAlign%3Dmiddle%3Bresizable%3D0%3Bpoints%3D%5B%5D%3B%22%20vertex%3D%221%22%20connectable%3D%220%22%20parent%3D%221%22%3E%3CmxGeometry%20x%3D%22370.3333333333335%22%20y%3D%22731.7500000000002%22%20as%3D%22geometry%22%2F%3E%3C%2FmxCell%3E%3C%2Froot%3E%3C%2FmxGraphModel%3E&lt;/span&gt;" style="edgeLabel;html=1;align=center;verticalAlign=middle;resizable=0;points=[];" vertex="1" connectable="0" parent="yVmnszPTZZxLj4L8UxqV-69">
          <mxGeometry x="-0.2493" y="-3" relative="1" as="geometry">
            <mxPoint as="offset" />
          </mxGeometry>
        </mxCell>
        <mxCell id="yVmnszPTZZxLj4L8UxqV-76" value="&lt;div style=&quot;text-align: start;&quot;&gt;&lt;font face=&quot;monospace&quot; color=&quot;rgba(0, 0, 0, 0)&quot;&gt;&lt;span style=&quot;font-size: 0px; background-color: rgb(251, 251, 251);&quot;&gt;Pa&lt;/span&gt;&lt;/font&gt;&lt;/div&gt;" style="edgeLabel;html=1;align=center;verticalAlign=middle;resizable=0;points=[];" vertex="1" connectable="0" parent="yVmnszPTZZxLj4L8UxqV-69">
          <mxGeometry x="-0.1913" y="2" relative="1" as="geometry">
            <mxPoint as="offset" />
          </mxGeometry>
        </mxCell>
        <mxCell id="yVmnszPTZZxLj4L8UxqV-77" value="Passou no teste" style="edgeLabel;html=1;align=center;verticalAlign=middle;resizable=0;points=[];" vertex="1" connectable="0" parent="yVmnszPTZZxLj4L8UxqV-69">
          <mxGeometry x="-0.1188" y="3" relative="1" as="geometry">
            <mxPoint as="offset" />
          </mxGeometry>
        </mxCell>
        <mxCell id="yVmnszPTZZxLj4L8UxqV-66" value="" style="rhombus;whiteSpace=wrap;html=1;fontSize=8;fontFamily=Verdana;rounded=1;shadow=0;labelBackgroundColor=none;strokeWidth=1;" vertex="1" parent="yVmnszPTZZxLj4L8UxqV-1">
          <mxGeometry x="280" y="43.75" width="45" height="47.5" as="geometry" />
        </mxCell>
        <mxCell id="yVmnszPTZZxLj4L8UxqV-68" value="" style="ellipse;whiteSpace=wrap;html=1;fontSize=8;fontFamily=Verdana;rounded=1;shadow=0;labelBackgroundColor=none;strokeWidth=1;" vertex="1" parent="yVmnszPTZZxLj4L8UxqV-1">
          <mxGeometry x="440" y="53.75" width="30" height="27.5" as="geometry" />
        </mxCell>
        <mxCell id="yVmnszPTZZxLj4L8UxqV-78" value="Foi realizado um teste para cada nova funcionalidade, onde a próxima funcionalidade só era desenvolvida se a anterior passasse nos testes" style="shape=callout;whiteSpace=wrap;html=1;perimeter=calloutPerimeter;" vertex="1" parent="yVmnszPTZZxLj4L8UxqV-1">
          <mxGeometry x="500" y="15.75" width="180" height="114.5" as="geometry" />
        </mxCell>
      </root>
    </mxGraphModel>
  </diagram>
</mxfile>
